<?xml version="1.0" encoding="UTF-8" standalone="no"?>
<!-- Generator: Adobe Illustrator 17.0.2, SVG Export Plug-In . SVG Version: 6.00 Build 0)  -->

<svg
   xmlns:dc="http://purl.org/dc/elements/1.1/"
   xmlns:cc="http://creativecommons.org/ns#"
   xmlns:rdf="http://www.w3.org/1999/02/22-rdf-syntax-ns#"
   xmlns:svg="http://www.w3.org/2000/svg"
   xmlns="http://www.w3.org/2000/svg"
   xmlns:sodipodi="http://sodipodi.sourceforge.net/DTD/sodipodi-0.dtd"
   xmlns:inkscape="http://www.inkscape.org/namespaces/inkscape"
   version="1.1"
   id="Layer_1"
   x="0px"
   y="0px"
   width="1040.948px"
   height="181.491px"
   viewBox="0 0 1040.948 181.491"
   enable-background="new 0 0 1040.948 181.491"
   xml:space="preserve"
   inkscape:version="0.48.4 r9939"
   sodipodi:docname="IOnotepadJS.svg"><metadata
     id="metadata66"><rdf:RDF><cc:Work
         rdf:about=""><dc:format>image/svg+xml</dc:format><dc:type
           rdf:resource="http://purl.org/dc/dcmitype/StillImage" /></cc:Work></rdf:RDF></metadata><defs
     id="defs64" /><sodipodi:namedview
     pagecolor="#ffffff"
     bordercolor="#666666"
     borderopacity="1"
     objecttolerance="10"
     gridtolerance="10"
     guidetolerance="10"
     inkscape:pageopacity="0"
     inkscape:pageshadow="2"
     inkscape:window-width="1329"
     inkscape:window-height="809"
     id="namedview62"
     showgrid="false"
     inkscape:zoom="1.8911466"
     inkscape:cx="520.474"
     inkscape:cy="90.745499"
     inkscape:window-x="0"
     inkscape:window-y="24"
     inkscape:window-maximized="0"
     inkscape:current-layer="Layer_1" /><g
     id="g3"><path
       fill="#484444"
       d="M31.106,142.957H7.14V28.076h23.966V142.957z"
       id="path5" /><path
       fill="#484444"
       d="M145.313,85.36c0,8.853-1.035,16.921-3.103,24.201c-2.07,7.283-5.225,13.516-9.469,18.702   c-4.243,5.186-9.599,9.194-16.069,12.022c-6.471,2.829-14.104,4.243-22.905,4.243s-16.436-1.414-22.906-4.243   c-6.47-2.829-11.813-6.836-16.03-12.022c-4.217-5.186-7.36-11.433-9.429-18.741c-2.07-7.307-3.103-15.413-3.103-24.319   c0-8.905,1.033-16.986,3.103-24.241c2.069-7.255,5.225-13.449,9.469-18.584c4.243-5.133,9.598-9.102,16.069-11.905   c6.469-2.801,14.131-4.204,22.984-4.204c8.801,0,16.423,1.403,22.866,4.204c6.443,2.803,11.773,6.785,15.991,11.944   c4.216,5.161,7.359,11.369,9.429,18.623C144.278,68.296,145.313,76.402,145.313,85.36z M67.365,85.36   c0,6.024,0.523,11.433,1.572,16.226c1.047,4.793,2.658,8.854,4.832,12.179c2.173,3.327,4.911,5.881,8.211,7.662   c3.3,1.781,7.229,2.671,11.787,2.671c4.661,0,8.656-0.89,11.983-2.671c3.326-1.781,6.05-4.335,8.171-7.662   c2.122-3.325,3.694-7.385,4.715-12.179c1.021-4.793,1.533-10.202,1.533-16.226s-0.511-11.434-1.533-16.227   c-1.021-4.792-2.593-8.865-4.715-12.219c-2.121-3.352-4.832-5.918-8.132-7.7c-3.301-1.78-7.256-2.671-11.865-2.671   c-4.558,0-8.513,0.891-11.866,2.671c-3.353,1.782-6.117,4.349-8.29,7.7c-2.175,3.354-3.786,7.427-4.832,12.219   C67.888,73.926,67.365,79.336,67.365,85.36z"
       id="path7" /><path
       fill="#484444"
       d="M392.087,52.946c0-2.462,0.354-4.544,1.06-6.247c0.708-1.702,1.69-3.077,2.947-4.126   c1.257-1.047,2.723-1.807,4.4-2.278c1.676-0.472,3.484-0.708,5.422-0.708c1.833,0,3.575,0.236,5.225,0.708   c1.65,0.471,3.104,1.232,4.361,2.278c1.257,1.049,2.252,2.424,2.986,4.126c0.733,1.703,1.1,3.785,1.1,6.247   c0,2.358-0.367,4.388-1.1,6.089c-0.734,1.704-1.729,3.092-2.986,4.165c-1.257,1.074-2.711,1.86-4.361,2.358   c-1.65,0.499-3.393,0.747-5.225,0.747c-1.938,0-3.745-0.248-5.422-0.747c-1.677-0.497-3.143-1.283-4.4-2.358   c-1.257-1.073-2.239-2.461-2.947-4.165C392.441,57.334,392.087,55.304,392.087,52.946z M392.087,117.851   c0-2.461,0.354-4.544,1.06-6.247c0.708-1.702,1.69-3.077,2.947-4.126c1.257-1.047,2.723-1.807,4.4-2.278   c1.676-0.471,3.484-0.708,5.422-0.708c1.833,0,3.575,0.237,5.225,0.708s3.104,1.232,4.361,2.278   c1.257,1.049,2.252,2.424,2.986,4.126c0.733,1.703,1.1,3.786,1.1,6.247c0,2.358-0.367,4.375-1.1,6.05   c-0.734,1.677-1.729,3.065-2.986,4.165c-1.257,1.101-2.711,1.898-4.361,2.397c-1.65,0.497-3.393,0.747-5.225,0.747   c-1.938,0-3.745-0.249-5.422-0.747c-1.677-0.499-3.143-1.296-4.4-2.397c-1.257-1.1-2.239-2.487-2.947-4.165   C392.441,122.226,392.087,120.209,392.087,117.851z"
       id="path9" /><path
       fill="#484444"
       d="M535.538,142.829h-30.881l-45.183-86.907h-0.708c0.315,4.035,0.577,8.042,0.786,12.022   c0.209,3.406,0.38,6.982,0.511,10.726c0.13,3.745,0.196,7.111,0.196,10.097v54.061h-21.766V27.949h30.724l45.103,86.043h0.471   c-0.156-3.98-0.341-7.909-0.549-11.787c-0.053-1.675-0.118-3.391-0.196-5.146c-0.079-1.754-0.146-3.509-0.196-5.265   c-0.053-1.754-0.093-3.443-0.118-5.068c-0.027-1.623-0.039-3.091-0.039-4.4V27.949h21.845V142.829z"
       id="path11" /><path
       fill="#484444"
       d="M625.521,98.747c0,7.335-0.931,13.83-2.79,19.487c-1.86,5.658-4.531,10.425-8.015,14.302   c-3.485,3.878-7.728,6.823-12.729,8.84c-5.003,2.016-10.622,3.025-16.856,3.025c-5.815,0-11.157-1.009-16.03-3.025   c-4.871-2.016-9.075-4.962-12.612-8.84c-3.535-3.876-6.3-8.643-8.29-14.302c-1.991-5.657-2.986-12.152-2.986-19.487   c0-7.281,0.93-13.751,2.79-19.409c1.859-5.657,4.53-10.412,8.015-14.262c3.484-3.85,7.713-6.771,12.69-8.762   c4.977-1.99,10.608-2.986,16.895-2.986c5.815,0,11.158,0.996,16.03,2.986c4.871,1.991,9.075,4.912,12.612,8.762   c3.536,3.85,6.298,8.604,8.29,14.262C624.525,84.996,625.521,91.467,625.521,98.747z M569.731,98.747   c0,8.749,1.231,15.336,3.694,19.763c2.462,4.427,6.47,6.64,12.022,6.64c5.5,0,9.481-2.226,11.944-6.679   c2.461-4.452,3.693-11.027,3.693-19.724c0-8.748-1.232-15.283-3.693-19.605c-2.463-4.321-6.497-6.482-12.102-6.482   c-5.5,0-9.468,2.161-11.904,6.482C570.95,83.464,569.731,90,569.731,98.747z"
       id="path13" /><path
       fill="#484444"
       d="M675.425,125.307c2.358,0,4.597-0.262,6.719-0.786c2.121-0.523,4.282-1.179,6.482-1.965v17.837   c-2.253,1.153-5.043,2.109-8.369,2.868c-3.327,0.759-6.954,1.14-10.883,1.14c-3.825,0-7.386-0.446-10.687-1.336   c-3.3-0.889-6.156-2.447-8.564-4.675c-2.41-2.226-4.31-5.212-5.697-8.958c-1.389-3.744-2.082-8.447-2.082-14.104V72.974h-11.473   V62.838l13.201-8.015l6.915-18.545h15.322v18.701h21.373v17.994H666.31v42.354c0,3.405,0.838,5.92,2.515,7.544   C670.501,124.495,672.701,125.307,675.425,125.307z"
       id="path15" /><path
       fill="#484444"
       d="M738.529,144.401c-6.287,0-12.076-0.917-17.366-2.75c-5.292-1.833-9.85-4.597-13.673-8.29   s-6.796-8.355-8.918-13.987c-2.122-5.631-3.182-12.244-3.182-19.841c0-7.7,0.969-14.432,2.908-20.195   c1.937-5.762,4.648-10.569,8.132-14.419c3.484-3.85,7.674-6.744,12.573-8.682c4.898-1.938,10.333-2.908,16.304-2.908   c5.815,0,11.066,0.878,15.755,2.632c4.688,1.757,8.67,4.336,11.944,7.74c3.273,3.405,5.787,7.583,7.543,12.534   c1.755,4.95,2.633,10.621,2.633,17.012v11.629h-53.59c0.105,3.353,0.641,6.378,1.611,9.075c0.969,2.699,2.33,4.977,4.086,6.836   c1.754,1.86,3.876,3.288,6.365,4.283c2.487,0.995,5.33,1.492,8.526,1.492c2.671,0,5.198-0.144,7.583-0.432   c2.383-0.287,4.7-0.719,6.953-1.297c2.252-0.576,4.48-1.296,6.68-2.16c2.2-0.865,4.452-1.873,6.757-3.026v18.545   c-2.096,1.101-4.204,2.031-6.325,2.79c-2.122,0.76-4.361,1.402-6.719,1.926c-2.357,0.523-4.899,0.903-7.622,1.139   C744.762,144.284,741.776,144.401,738.529,144.401z M735.464,70.381c-4.243,0-7.767,1.494-10.569,4.48   c-2.802,2.986-4.413,7.675-4.832,14.065h30.567c-0.053-2.671-0.393-5.133-1.021-7.386c-0.628-2.252-1.572-4.204-2.829-5.854   c-1.258-1.65-2.829-2.947-4.715-3.89C740.179,70.853,737.979,70.381,735.464,70.381z"
       id="path17" /><path
       fill="#484444"
       d="M830.003,144.401c-2.883,0-5.462-0.314-7.74-0.943c-2.278-0.628-4.31-1.465-6.089-2.514   c-1.782-1.048-3.354-2.239-4.715-3.575c-1.363-1.336-2.593-2.737-3.693-4.204h-1.258c0.209,1.835,0.419,3.563,0.628,5.186   c0.157,1.363,0.301,2.763,0.433,4.204c0.13,1.44,0.196,2.554,0.196,3.34v28.237h-23.967V54.979h19.487l3.379,11.394h1.101   c1.1-1.78,2.357-3.457,3.771-5.029c1.414-1.572,3.052-2.946,4.912-4.125c1.859-1.179,3.968-2.122,6.325-2.83   c2.358-0.707,4.977-1.06,7.859-1.06c4.557,0,8.695,0.97,12.415,2.908c3.719,1.938,6.914,4.82,9.587,8.643   c2.671,3.825,4.74,8.565,6.208,14.223c1.466,5.657,2.2,12.206,2.2,19.644c0,7.492-0.761,14.079-2.279,19.763   c-1.52,5.685-3.654,10.451-6.404,14.301c-2.749,3.85-6.025,6.745-9.822,8.684C838.738,143.431,834.56,144.401,830.003,144.401z    M822.538,72.503c-2.671,0-4.938,0.485-6.797,1.453c-1.86,0.971-3.366,2.424-4.518,4.361c-1.153,1.938-1.992,4.388-2.515,7.347   c-0.524,2.96-0.839,6.404-0.942,10.332v2.593c0,4.243,0.247,8.015,0.746,11.316c0.497,3.3,1.322,6.064,2.476,8.29   c1.151,2.228,2.684,3.917,4.597,5.069c1.911,1.152,4.282,1.728,7.111,1.728c4.766,0,8.263-2.265,10.49-6.797   c2.227-4.53,3.34-11.118,3.34-19.763c0-8.643-1.113-15.126-3.34-19.448C830.958,74.664,827.41,72.503,822.538,72.503z"
       id="path19" /><path
       fill="#484444"
       d="M926.188,142.829l-4.637-11.943h-0.707c-1.729,2.357-3.457,4.388-5.186,6.089   c-1.729,1.703-3.615,3.104-5.657,4.204c-2.044,1.101-4.336,1.912-6.876,2.436c-2.541,0.523-5.488,0.786-8.84,0.786   c-3.563,0-6.864-0.563-9.9-1.689c-3.039-1.126-5.671-2.829-7.898-5.108c-2.227-2.278-3.968-5.159-5.225-8.643   c-1.257-3.484-1.885-7.608-1.885-12.376c0-9.324,2.986-16.199,8.957-20.627c5.972-4.426,14.904-6.875,26.795-7.347l13.987-0.471   v-6.601c0-3.615-1.048-6.286-3.142-8.015c-2.097-1.729-5.03-2.593-8.801-2.593c-3.772,0-7.453,0.55-11.041,1.65   c-3.588,1.101-7.19,2.568-10.805,4.4l-7.778-15.872c4.4-2.462,9.272-4.4,14.615-5.815c5.343-1.414,10.948-2.122,16.816-2.122   c10.948,0,19.342,2.568,25.183,7.701c5.841,5.134,8.762,12.939,8.762,23.416v58.54H926.188z M919.116,102.126l-7.936,0.315   c-3.196,0.105-5.894,0.524-8.094,1.257c-2.2,0.734-3.968,1.716-5.304,2.947c-1.336,1.231-2.306,2.698-2.908,4.399   c-0.603,1.704-0.903,3.603-0.903,5.697c0,3.667,0.889,6.274,2.671,7.818c1.78,1.545,4.112,2.318,6.993,2.318   c2.2,0,4.243-0.38,6.129-1.14c1.885-0.758,3.522-1.886,4.911-3.379c1.388-1.492,2.475-3.326,3.261-5.5   c0.786-2.174,1.179-4.676,1.179-7.505V102.126z"
       id="path21" /><path
       fill="#484444"
       d="M983.795,144.401c-4.506,0-8.618-0.97-12.337-2.907c-3.72-1.938-6.914-4.806-9.587-8.604   c-2.671-3.798-4.753-8.526-6.247-14.183c-1.492-5.658-2.239-12.205-2.239-19.644c0-7.544,0.747-14.157,2.239-19.841   c1.494-5.684,3.615-10.452,6.365-14.302c2.751-3.85,6.037-6.744,9.861-8.682c3.824-1.938,8.041-2.908,12.651-2.908   c2.83,0,5.423,0.328,7.779,0.982c2.358,0.656,4.48,1.572,6.365,2.75c1.886,1.179,3.575,2.541,5.068,4.086   c1.494,1.546,2.816,3.235,3.968,5.069h0.786c-0.314-2.044-0.603-4.112-0.864-6.208c-0.263-1.781-0.485-3.68-0.668-5.697   c-0.185-2.016-0.276-3.889-0.276-5.618V27.921h23.967v114.909h-18.309l-4.636-11.394h-1.021c-1.1,1.782-2.358,3.471-3.772,5.069   c-1.414,1.598-3.052,2.973-4.911,4.125c-1.86,1.153-3.956,2.07-6.287,2.751C989.36,144.06,986.728,144.401,983.795,144.401z    M992.517,125.307c2.829,0,5.237-0.484,7.229-1.454c1.99-0.969,3.601-2.436,4.832-4.4c1.229-1.964,2.147-4.412,2.749-7.346   c0.602-2.933,0.93-6.365,0.982-10.294v-2.593c0-4.243-0.262-8.015-0.786-11.315c-0.524-3.301-1.388-6.063-2.592-8.291   c-1.206-2.226-2.83-3.914-4.873-5.068c-2.043-1.151-4.611-1.728-7.7-1.728c-5.029,0-8.723,2.266-11.08,6.796   c-2.357,4.532-3.535,11.119-3.535,19.763s1.19,15.127,3.575,19.448C983.703,123.146,987.435,125.307,992.517,125.307z"
       id="path23" /><linearGradient
       id="SVGID_1_"
       gradientUnits="userSpaceOnUse"
       x1="269.7946"
       y1="-9.7846"
       x2="269.7946"
       y2="167.9362"><stop
         offset="0"
         style="stop-color:#F29100"
         id="stop26" /><stop
         offset="1"
         style="stop-color:#EC670F"
         id="stop28" /></linearGradient><path
       fill="url(#SVGID_1_)"
       d="M331.39,143.791h19.13V26.778h-19.13v-18.1h41.52v153.213h-41.52V143.791z M333.124,76.68   c2.605-0.258,0.049-6.301-0.981-7.508c-1.591-1.863-4.247-2.717-7.072-3.466c-3.355-0.889-6.4-1.916-9.56-1.296   c-5.518,1.08-5.105-2.077-8.357-2.077c-3.902,0-10.844,0.191-12.045,3.985c-0.559,1.771-1.135,1.845-2.103,3.204   c-0.828,1.164,0.144,2.192-0.271,3.52c-0.43,1.365-1.06,6.174-1.718,7.851c-1.112,2.839-2.439,6.384-4.887,6.384   c-3.433,0.411-6.13,0.543-8.914-0.469c-1.675-0.609-4.484-1.561-5.873-2.146c-6.408-2.698-7.461-5.649-7.461-5.649   c-0.688-1.137-2.499-2.97-3.176-5.361c-0.746-2.634-2.003-4.83-2.513-6.201c-0.528-1.419-1.789-3.694-2.779-6.153   c-1.268-3.149-3.053-5.497-4.359-6.664c-1.996-1.779-3.838-4.533-7.889-3.732c-0.724,0.143-3.356,0.262-5.372,1.954   c-1.368,1.147-1.799,3.515-3.065,5.511c-0.732,1.154-2.017,4.463-3.198,7.224c-0.818,1.913-1.199,3.348-2.084,4.053   c-0.692,0.551-1.549,1.264-2.585,0.876c-0.643-0.241-1.331-0.649-2.024-1.192c-0.937-0.732-3.067-4.355-4.374-7.033   c-1.133-2.32-3.553-5.791-4.954-7.671c-2.014-2.703-3.196-3.388-6.173-3.388c-6.386,0-6.869,3.575-9.678,8.775   c-1.233,2.284-1.483,5.909-3.959,8.75c-1.057,1.213-4.145,5.24-6.308,7.678V27.084h18.387V8.697h-41.101v153.588h41.101v-18.387   h-18.387v-23.184c0-1.473,2.578-2.944,3.497-4.503c0.851-1.448,1.723-2.867,2.287-4.387c0.485-1.31,0.674-3.261,1.375-4.397   c0.859-1.393,2.179-1.867,3.56-2.092c2.163-0.357,3.988,3.109,6.755,4.385c1.18,0.542,6.605,2.465,8.235,2.86   c2.685,0.642,5.661,1.178,8.387,1.728c1.46,0.295,2.854,0.467,4.357,0.619c1.349,0.135,6.399,0.302,6.711,0.667   c-2.568,1.31-4.073,4.985-5.037,7.586c-1.005,2.711-1.706,5.727-2.921,8.378c-1.347,2.929-4.169,4.149-3.832,7.561   c0.129,1.362,0.378,2.791,0.15,4.289c-0.243,1.578-0.88,2.809-1.345,4.354c-0.596,2.015-1.305,8.526-2.224,10.439   c0,0-0.782,1.928-0.777,2.685c0.208,0.353,8.184,0.581,9.007,0.484s2.712-0.339,3.535-0.726c0.823-0.387-1.943-2.726-2.615-2.954   c-0.672-0.228-1.356-0.242-1.889,0c-0.533,0.242-1.55-0.847-1.415-0.91c0.135-0.064,0,0,0,0c0.526-2.146,0.984-6.974,1.16-7.49   c1.051-3.088,2.444-5.629,4.589-8.018c2.091-2.327,1.982-5.328,3.203-8.038c1.322-2.947,3.1-5.304,4.778-8.074   c3.032-5.009,5.033-11.333,11.48-12.62c0.689-0.142,4.636,2.704,6.387,4.396c2.007,1.928,4.198,4.162,5.516,6.821   c2.551,5.153,4.716,12.619,5.534,16.735c0.471,2.364,0.845,2.505,2.444,4.378c0.736,0.858,2.204,3.539,2.687,4.568   c0.508,1.099,1.279,3.6,1.893,4.876c0.362,0.76,1.301,3.095,1.984,5.112c0,0,0.906,3.515,1.236,3.784   c0.329,0.269,3.729,0.63,6.731,0.387c3.002-0.242,4.028-2.012,4.019-2.324c-0.009-0.312-2.164-2.574-3.922-1.646   c0,0-1.248,0.006-3.571-2.264c-2.138-4.81-3.547-10.175-4.314-15.336c-0.22-1.499,0.208-2.99-0.245-4.396   c-0.386-1.227-1.273-1.34-1.854-2.337c-1.534-2.618-3.119-6.009-3.265-9.214c-0.134-2.879-1.192-5.48-1.336-8.333   c-0.07-1.376,0.093-2.797,0.043-4.16c-0.027-0.663-0.064-1.238-0.195-1.958c-0.033-0.178-0.15-0.911-0.206-1.205l0.358-0.892   c-0.158-0.306,3.055-0.205,4.013-0.197c1.626,0.02,3.156,0.104,4.778,0.182c3.314,0.165,6.332,0.123,9.56-0.375   c7.191-1.11,10.497-4.047,12.189-5.268c6.603-4.761,9.627-12.545,9.627-12.545c1.09-2.431,1.086-6.769,3.421-8.712   c2.753-2.293,7.374-2.129,10.534-3.536c1.848-0.818,3.182-1.268,5.072-0.877c1.402,0.293,3.927,1.917,4.506-0.363   C333.558,77.539,333.375,76.986,333.124,76.68z"
       id="path30" /></g><g
     id="g32" /><g
     id="g34" /><g
     id="g36" /><g
     id="g38" /><g
     id="g40" /><g
     id="g42" /><g
     id="g44" /><g
     id="g46" /><g
     id="g48" /><g
     id="g50" /><g
     id="g52" /><g
     id="g54" /><g
     id="g56" /><g
     id="g58" /><g
     id="g60" /><text
     xml:space="preserve"
     style="font-size:32.00000047px;font-style:normal;font-variant:normal;font-weight:normal;font-stretch:normal;line-height:125%;letter-spacing:0px;word-spacing:0px;fill:#000000;fill-opacity:1;stroke:none;font-family:Droid Sans Mono;-inkscape-font-specification:Droid Sans Mono"
     x="299.81812"
     y="140.24619"
     id="text3062"
     sodipodi:linespacing="125%"
     transform="translate(-6.7249617e-6,0)"><tspan
       sodipodi:role="line"
       id="tspan3064"></tspan></text>
<text
     xml:space="preserve"
     style="font-size:50.34410858px;font-style:italic;font-variant:normal;font-weight:bold;font-stretch:normal;line-height:125%;letter-spacing:0px;word-spacing:0px;fill:#000000;fill-opacity:1;stroke:none;font-family:Arial;-inkscape-font-specification:Arial Bold Italic"
     x="279.18021"
     y="142.57266"
     id="text3066"
     sodipodi:linespacing="125%"
     transform="scale(1.0184883,0.98184732)"><tspan
       sodipodi:role="line"
       id="tspan3068"
       x="279.18021"
       y="142.57266">JS</tspan></text>
</svg>